<svg width="24" height="24" viewBox="0 0 24 24" fill="none" xmlns="http://www.w3.org/2000/svg">
<g clip-path="url(#clip0_63_166)">
<path d="M8.03233 23.5699C9.01814 23.5699 9.81729 22.7708 9.81729 21.785C9.81729 20.7992 9.01814 20 8.03233 20C7.04653 20 6.24738 20.7992 6.24738 21.785C6.24738 22.7708 7.04653 23.5699 8.03233 23.5699Z" fill="black"/>
<path d="M20.527 23.5699C21.5128 23.5699 22.312 22.7708 22.312 21.785C22.312 20.7992 21.5128 20 20.527 20C19.5412 20 18.7421 20.7992 18.7421 21.785C18.7421 22.7708 19.5412 23.5699 20.527 23.5699Z" fill="black"/>
<path d="M23.6953 3.54875C23.5699 3.37691 23.412 3.2385 23.2329 3.14358C23.0538 3.04867 22.8581 2.99962 22.66 3H5.68342L5.34149 0.82625C5.30503 0.594705 5.19692 0.384959 5.03615 0.233855C4.87538 0.0827502 4.67224 -4.94009e-05 4.4624 2.21126e-08H0.892479C0.655779 2.21126e-08 0.428773 0.105357 0.261401 0.292893C0.0940288 0.48043 0 0.734784 0 1C0 1.26522 0.0940288 1.51957 0.261401 1.70711C0.428773 1.89464 0.655779 2 0.892479 2H3.71383L6.26074 18.1737C6.2972 18.4053 6.40531 18.615 6.56608 18.7661C6.72685 18.9172 6.92999 19 7.13983 19H21.4195C21.6562 19 21.8832 18.8946 22.0506 18.7071C22.218 18.5196 22.312 18.2652 22.312 18C22.312 17.7348 22.218 17.4804 22.0506 17.2929C21.8832 17.1054 21.6562 17 21.4195 17H7.8884L7.5738 15H21.0536C21.3631 14.9996 21.663 14.8793 21.9024 14.6596C22.1419 14.4399 22.3063 14.1343 22.3678 13.7944L23.9742 4.79438C24.0129 4.57656 24.008 4.35184 23.9598 4.13643C23.9115 3.92102 23.8212 3.72029 23.6953 3.54875Z" fill="black"/>
</g>
<defs>
<clipPath id="clip0_63_166">
<rect width="24" height="24" fill="white"/>
</clipPath>
</defs>
</svg>
