<svg width="24" height="24" viewBox="0 0 24 24" fill="none" xmlns="http://www.w3.org/2000/svg">
<rect width="24" height="24" fill="#6F747E"/>
<rect width="1920" height="2325" transform="translate(-1160 -36)" fill="#E0E2ED"/>
<rect width="1218" height="152" transform="translate(-809 -16)" fill="#E0E2ED"/>
<path d="M-809 -8C-809 -12.4183 -805.418 -16 -801 -16H401C405.418 -16 409 -12.4183 409 -8V32C409 36.4183 405.418 40 401 40H-801C-805.418 40 -809 36.4183 -809 32V-8Z" fill="#C7CBDF"/>
<mask id="path-2-inside-1_0_1" fill="white">
<path d="M12 1C18.0753 1 23 5.9247 23 12C23 18.0753 18.0753 23 12 23C10.0561 23.0031 8.14633 22.4887 6.46701 21.5095L1.00442 23L2.49161 17.5352C1.51162 15.8554 0.996768 13.9448 1.00002 12C1.00002 5.9247 5.92471 1 12 1ZM8.25121 6.83L8.03121 6.8388C7.88878 6.84747 7.74959 6.88489 7.62201 6.9488C7.50268 7.01637 7.39376 7.10084 7.29861 7.1996C7.16661 7.3239 7.09181 7.4317 7.01151 7.5362C6.60465 8.06519 6.38558 8.71464 6.38891 9.38199C6.39111 9.92099 6.53191 10.4457 6.75191 10.9363C7.20181 11.9285 7.94211 12.979 8.91891 13.9525C9.15431 14.1868 9.38531 14.4222 9.63391 14.6411C10.8476 15.7097 12.294 16.4803 13.8579 16.8917L14.4827 16.9874C14.6862 16.9984 14.8897 16.983 15.0943 16.9731C15.4147 16.9566 15.7275 16.8698 16.0106 16.719C16.1547 16.6448 16.2952 16.564 16.4319 16.477C16.4319 16.477 16.4792 16.4462 16.5694 16.378C16.7179 16.268 16.8092 16.1899 16.9324 16.0612C17.0237 15.9666 17.1029 15.8555 17.1634 15.729C17.2492 15.5497 17.335 15.2076 17.3702 14.9227C17.3966 14.7049 17.3889 14.5861 17.3856 14.5124C17.3812 14.3947 17.2833 14.2726 17.1766 14.2209L16.5364 13.9338C16.5364 13.9338 15.5794 13.5169 14.9942 13.2507C14.933 13.224 14.8674 13.2087 14.8006 13.2056C14.7253 13.1979 14.6493 13.2063 14.5776 13.2304C14.5059 13.2545 14.4401 13.2937 14.3848 13.3453C14.3793 13.3431 14.3056 13.4058 13.5103 14.3694C13.4647 14.4307 13.4018 14.4771 13.3297 14.5026C13.2576 14.528 13.1796 14.5314 13.1055 14.5124C13.0338 14.4932 12.9636 14.4689 12.8954 14.4398C12.759 14.3826 12.7117 14.3606 12.6182 14.321C11.9869 14.0455 11.4024 13.6733 10.8857 13.2177C10.7471 13.0967 10.6184 12.9647 10.4864 12.8371C10.0537 12.4226 9.67651 11.9538 9.36441 11.4423L9.29951 11.3378C9.2529 11.2676 9.21521 11.1918 9.18731 11.1123C9.14551 10.9506 9.25441 10.8208 9.25441 10.8208C9.25441 10.8208 9.52171 10.5282 9.64601 10.3698C9.76701 10.2158 9.86931 10.0662 9.93531 9.95949C10.0651 9.75049 10.1058 9.53599 10.0376 9.36989C9.72961 8.6175 9.41061 7.8684 9.08281 7.1248C9.01791 6.9774 8.82541 6.8718 8.65051 6.8509C8.59111 6.8443 8.53171 6.8377 8.47231 6.8333C8.32459 6.82596 8.17656 6.82743 8.02901 6.8377L8.25121 6.83Z"/>
</mask>
<path d="M12 1C18.0753 1 23 5.9247 23 12C23 18.0753 18.0753 23 12 23C10.0561 23.0031 8.14633 22.4887 6.46701 21.5095L1.00442 23L2.49161 17.5352C1.51162 15.8554 0.996768 13.9448 1.00002 12C1.00002 5.9247 5.92471 1 12 1ZM8.25121 6.83L8.03121 6.8388C7.88878 6.84747 7.74959 6.88489 7.62201 6.9488C7.50268 7.01637 7.39376 7.10084 7.29861 7.1996C7.16661 7.3239 7.09181 7.4317 7.01151 7.5362C6.60465 8.06519 6.38558 8.71464 6.38891 9.38199C6.39111 9.92099 6.53191 10.4457 6.75191 10.9363C7.20181 11.9285 7.94211 12.979 8.91891 13.9525C9.15431 14.1868 9.38531 14.4222 9.63391 14.6411C10.8476 15.7097 12.294 16.4803 13.8579 16.8917L14.4827 16.9874C14.6862 16.9984 14.8897 16.983 15.0943 16.9731C15.4147 16.9566 15.7275 16.8698 16.0106 16.719C16.1547 16.6448 16.2952 16.564 16.4319 16.477C16.4319 16.477 16.4792 16.4462 16.5694 16.378C16.7179 16.268 16.8092 16.1899 16.9324 16.0612C17.0237 15.9666 17.1029 15.8555 17.1634 15.729C17.2492 15.5497 17.335 15.2076 17.3702 14.9227C17.3966 14.7049 17.3889 14.5861 17.3856 14.5124C17.3812 14.3947 17.2833 14.2726 17.1766 14.2209L16.5364 13.9338C16.5364 13.9338 15.5794 13.5169 14.9942 13.2507C14.933 13.224 14.8674 13.2087 14.8006 13.2056C14.7253 13.1979 14.6493 13.2063 14.5776 13.2304C14.5059 13.2545 14.4401 13.2937 14.3848 13.3453C14.3793 13.3431 14.3056 13.4058 13.5103 14.3694C13.4647 14.4307 13.4018 14.4771 13.3297 14.5026C13.2576 14.528 13.1796 14.5314 13.1055 14.5124C13.0338 14.4932 12.9636 14.4689 12.8954 14.4398C12.759 14.3826 12.7117 14.3606 12.6182 14.321C11.9869 14.0455 11.4024 13.6733 10.8857 13.2177C10.7471 13.0967 10.6184 12.9647 10.4864 12.8371C10.0537 12.4226 9.67651 11.9538 9.36441 11.4423L9.29951 11.3378C9.2529 11.2676 9.21521 11.1918 9.18731 11.1123C9.14551 10.9506 9.25441 10.8208 9.25441 10.8208C9.25441 10.8208 9.52171 10.5282 9.64601 10.3698C9.76701 10.2158 9.86931 10.0662 9.93531 9.95949C10.0651 9.75049 10.1058 9.53599 10.0376 9.36989C9.72961 8.6175 9.41061 7.8684 9.08281 7.1248C9.01791 6.9774 8.82541 6.8718 8.65051 6.8509C8.59111 6.8443 8.53171 6.8377 8.47231 6.8333C8.32459 6.82596 8.17656 6.82743 8.02901 6.8377L8.25121 6.83Z" fill="#171719" stroke="#171719" stroke-width="2" mask="url(#path-2-inside-1_0_1)"/>
</svg>
