<svg width="24" height="24" viewBox="0 0 24 24" fill="none" xmlns="http://www.w3.org/2000/svg">
<g clip-path="url(#clip0_63_160)">
<g clip-path="url(#clip1_63_160)">
<path d="M20.6278 24C21.5224 23.9993 22.3802 23.6908 23.0125 23.1422C23.6448 22.5936 24 21.8499 24 21.0744V19.8808C24 19.1357 23.7315 18.4093 23.2319 17.803C20.9128 14.9892 17.1266 13.5966 11.9962 13.5966C6.86293 13.5966 3.07819 14.9905 0.765047 17.8043C0.267206 18.4102 -0.000226295 19.1356 1.43678e-07 19.8795V21.0757C0.000397674 21.8512 0.355969 22.5948 0.988576 23.1431C1.62118 23.6915 2.47907 23.9997 3.37371 24H20.6278ZM11.9947 -2C12.9797 -2 13.9551 -1.83184 14.8651 -1.50512C15.7751 -1.1784 16.6019 -0.699515 17.2984 -0.0958134C17.9949 0.507888 18.5473 1.22459 18.9243 2.01336C19.3012 2.80213 19.4952 3.64754 19.4952 4.5013C19.4952 5.35506 19.3012 6.20047 18.9243 6.98924C18.5473 7.77801 17.9949 8.49471 17.2984 9.09841C16.6019 9.70212 15.7751 10.181 14.8651 10.5077C13.9551 10.8344 12.9797 11.0026 11.9947 11.0026C10.0055 11.0026 8.09773 10.3176 6.69112 9.09841C5.28451 7.87918 4.49428 6.22555 4.49428 4.5013C4.49428 2.77705 5.28451 1.12342 6.69112 -0.095813C8.09773 -1.31504 10.0055 -2 11.9947 -2Z" fill="#171719"/>
</g>
<g clip-path="url(#clip2_63_160)">
<path d="M18.3303 24C19.0386 23.9994 19.7176 23.7146 20.2182 23.2082C20.7188 22.7018 21 22.0153 21 21.2995V20.1976C21 19.5099 20.7874 18.8393 20.392 18.2797C18.556 15.6823 15.5585 14.3969 11.497 14.3969C7.43315 14.3969 4.4369 15.6835 2.60566 18.2809C2.21154 18.8402 1.99982 19.5098 2 20.1964V21.3007C2.00031 22.0165 2.28181 22.7029 2.78262 23.209C3.28344 23.7152 3.9626 23.9997 4.67085 24H18.3303ZM11.4958 0C12.2756 -1.17434e-08 13.0478 0.155225 13.7682 0.456814C14.4886 0.758402 15.1432 1.20045 15.6946 1.75771C16.2459 2.31497 16.6833 2.97654 16.9817 3.70464C17.2801 4.43274 17.4337 5.21311 17.4337 6.0012C17.4337 6.78929 17.2801 7.56966 16.9817 8.29776C16.6833 9.02586 16.2459 9.68743 15.6946 10.2447C15.1432 10.802 14.4886 11.244 13.7682 11.5456C13.0478 11.8472 12.2756 12.0024 11.4958 12.0024C9.92102 12.0024 8.4107 11.3701 7.29713 10.2447C6.18357 9.11925 5.55797 7.59282 5.55797 6.0012C5.55797 4.40958 6.18357 2.88315 7.29713 1.75771C8.4107 0.632267 9.92102 0 11.4958 0Z" fill="#171719"/>
</g>
</g>
<defs>
<clipPath id="clip0_63_160">
<rect width="24" height="24" fill="white"/>
</clipPath>
<clipPath id="clip1_63_160">
<rect width="24" height="12" fill="white" transform="translate(0 12)"/>
</clipPath>
<clipPath id="clip2_63_160">
<rect width="19" height="12" fill="white" transform="translate(2)"/>
</clipPath>
</defs>
</svg>
